<svg xmlns="http://www.w3.org/2000/svg" width="18" height="18" viewBox="0 0 18 18"><path clip-rule="evenodd" d="M2.5 3.96s-.088-.683-.713-.683H.717S0 3.277 0 2.597l.715-.683h1.07c1.974 0 2.15 1.49 2.15 1.49l.083.555h10.98v3.75c0 1.362-1.785 1.703-1.785 1.703L5.29 11.117l.115.722s.08.64.666.64h7.143s.714-.01.714.682c0 .692-.714.682-.714.682h-7.5c-1.606 0-1.785-1.704-1.785-1.704L2.5 3.96z" fill="#9dbbee" fill-rule="evenodd"/><ellipse fill-rule="evenodd" clip-rule="evenodd" fill="#9DBBEE" cx="6.892" cy="15.719" rx="1.25" ry="1.193"/><ellipse fill-rule="evenodd" clip-rule="evenodd" fill="#9DBBEE" cx="12.963" cy="15.719" rx="1.25" ry="1.193"/></svg>