<?xml version="1.0" encoding="utf-8"?><!DOCTYPE svg PUBLIC "-//W3C//DTD SVG 1.1//EN" "http://www.w3.org/Graphics/SVG/1.1/DTD/svg11.dtd"><svg version="1.1" id="All_glyphs" xmlns="http://www.w3.org/2000/svg" xmlns:xlink="http://www.w3.org/1999/xlink" x="0px" y="0px" width="20px" height="20px" viewBox="0 0 20 20" enable-background="new 0 0 20 20" xml:space="preserve"><g opacity="1.0"> <path d="M18.076,10c0-1.247,0.768-2.231,1.924-2.908c-0.208-0.696-0.484-1.363-0.824-1.991c-1.296,0.339-2.345-0.168-3.227-1.05 s-1.152-1.932-0.812-3.228C14.509,0.484,13.842,0.208,13.146,0C12.469,1.156,11.247,1.924,10,1.924S7.531,1.156,6.854,0 c-0.696,0.208-1.363,0.484-1.99,0.823C5.203,2.12,4.933,3.169,4.051,4.051C3.169,4.933,2.12,5.441,0.824,5.102 C0.484,5.729,0.208,6.396,0,7.092C1.156,7.769,1.923,8.753,1.923,10S1.156,12.469,0,13.146c0.208,0.696,0.484,1.363,0.824,1.991 c1.296-0.339,2.345-0.069,3.228,0.812c0.881,0.882,1.151,1.931,0.812,3.228C5.491,19.516,6.158,19.792,6.854,20 c0.677-1.156,1.898-1.924,3.146-1.924s2.469,0.768,3.146,1.924c0.696-0.208,1.363-0.484,1.991-0.824 c-0.339-1.296-0.069-2.345,0.812-3.227s1.931-1.39,3.227-1.051c0.34-0.628,0.616-1.294,0.824-1.991 C18.844,12.231,18.076,11.247,18.076,10z M10,14.349c-2.402,0-4.349-1.947-4.349-4.349S7.598,5.651,10,5.651 S14.349,7.598,14.349,10S12.402,14.349,10,14.349z"/></g></svg>