<svg xmlns="http://www.w3.org/2000/svg" width="58" height="53" viewBox="0 0 58 53"><path fill="#b3b3b3" d="M9.47 0H6.388c-3.03 0-5.6 2.306-5.6 6.784 0 2.686 1.245 4.667 3.462 5.644l-4.14 7.49c-.134.244 0 .434.217.434h1.92c.163 0 .272-.054.326-.19l3.76-7.353h1.353v7.353c0 .08.08.19.19.19h1.677c.162 0 .216-.082.216-.217V.27c0-.19-.11-.27-.3-.27zM7.687 11.07H6.55c-1.786 0-3.517-1.302-3.517-4.558 0-3.392 1.623-4.776 3.273-4.776h1.38v9.335zM19.64 6.746H17.96c-.135 0-.216.108-.216.19v5.182h-3.11V6.936c0-.135-.054-.19-.19-.19h-1.678c-.134 0-.216.082-.216.19v13.188c0 .135.054.217.19.217h1.704c.108 0 .19-.08.19-.216V13.83h3.11v6.294c0 .135.08.217.216.217h1.677c.134 0 .188-.107.188-.216V6.936c0-.108-.08-.19-.19-.19zM57.933 19.473l-.217-.923c-.026-.08-.053-.108-.134-.108-.135 0-.866.298-1.92.298-2.057 0-3.058-1.98-3.058-5.128 0-2.768.84-5.51 2.246-5.51.38 0 .84.11 1.57.788.08.08.135.108.216.108.08 0 .162-.055.244-.19l.73-1.193c.055-.082.082-.164.082-.245 0-.108-.108-.19-.27-.27-1.11-.57-1.868-.68-2.517-.68-2.543 0-4.518 3.04-4.518 7.788 0 4.098 1.894 6.458 4.6 6.458 1.136 0 2.353-.542 2.84-.896.106-.08.133-.19.106-.297zM46.176 12.878l3.246-5.943c.054-.08.027-.19-.08-.19h-1.597c-.46 0-.622.163-.784.516l-2.435 5.076c-.134.3-.27.488-.405.57v-5.97c0-.108-.054-.19-.162-.19H42.2c-.08 0-.162.082-.162.19V20.15c0 .082.054.19.162.19h1.758c.108 0 .162-.08.162-.19v-6.81c.08.054.135.135.19.244l3.082 6.35c.162.325.406.406.758.406h1.73c.11 0 .136-.108.082-.19l-3.786-7.272zM30.676 18.63h-.325c-.405 0-.513-.16-.513-.487V6.936c0-.135-.054-.19-.162-.19h-5.41c-.136 0-.217.082-.217.19v.977c0 3.283-.19 7.516-1.92 10.72h-.596c-.162 0-.216.08-.216.216v3.96c0 .137.108.19.19.19h1.298c.297 0 .405-.217.405-.407V20.34H29v2.47c0 .11.08.19.188.19h1.38c.162 0 .324-.135.324-.407V18.85c0-.136-.08-.22-.216-.22zm-2.922 0h-3.922c1.38-2.36 1.92-5.02 2.11-8.275.054-.705.08-1.44.08-1.9h1.732V18.63zM36.194 6.42c-2.92 0-4.22 3.69-4.22 7.707 0 4.098 1.84 6.54 4.545 6.54 1.324 0 2.488-.515 3.082-.896.108-.053.135-.134.108-.243l-.216-.923c-.027-.108-.08-.162-.217-.162-.107 0-.892.298-2.002.298-2.083 0-3.056-1.818-3.056-4.205v-.643s1.053.127 1.676.127h3.95v-1.14c0-4.207-1.488-6.46-3.652-6.46zm-.297 5.89c-.623 0-1.596.107-1.596.107s0-.407.055-.842c.243-2.306.81-3.473 1.758-3.473.866 0 1.406 1.193 1.542 3.283.027.434.027.923.027.923h-1.785z"/><path fill="#f00" d="M9.47 30H6.388c-3.03 0-5.6 2.306-5.6 6.784 0 2.686 1.246 4.667 3.463 5.644l-4.138 7.49c-.135.244 0 .434.216.434h1.92c.163 0 .272-.054.326-.19l3.76-7.353h1.353v7.353c0 .08.08.19.19.19h1.677c.162 0 .216-.082.216-.217V30.27c0-.19-.11-.27-.3-.27zM7.687 41.07H6.55c-1.786 0-3.517-1.302-3.517-4.558 0-3.392 1.623-4.776 3.273-4.776h1.38v9.335z"/><path d="M19.64 36.746H17.96c-.135 0-.216.108-.216.19v5.182h-3.11v-5.183c0-.135-.054-.19-.19-.19h-1.678c-.134 0-.216.082-.216.19v13.188c0 .135.054.217.19.217h1.704c.108 0 .19-.08.19-.217v-6.295h3.11v6.295c0 .135.08.217.216.217h1.677c.134 0 .188-.108.188-.217V36.936c0-.108-.08-.19-.19-.19zM57.933 49.473l-.217-.923c-.026-.08-.053-.108-.134-.108-.135 0-.866.298-1.92.298-2.057 0-3.058-1.98-3.058-5.128 0-2.768.84-5.51 2.246-5.51.38 0 .84.11 1.57.788.08.08.135.108.216.108.08 0 .162-.055.244-.19l.73-1.193c.055-.082.082-.164.082-.245 0-.108-.108-.19-.27-.27-1.11-.57-1.868-.68-2.517-.68-2.543 0-4.518 3.04-4.518 7.788 0 4.098 1.894 6.458 4.6 6.458 1.136 0 2.353-.542 2.84-.896.106-.08.133-.19.106-.297zM46.176 42.878l3.246-5.943c.054-.08.027-.19-.08-.19h-1.597c-.46 0-.622.163-.784.516l-2.435 5.076c-.134.3-.27.488-.405.57v-5.97c0-.108-.054-.19-.162-.19H42.2c-.08 0-.162.082-.162.19V50.15c0 .082.054.19.162.19h1.758c.108 0 .162-.08.162-.19v-6.81c.08.054.135.135.19.244l3.082 6.35c.162.325.406.406.758.406h1.73c.11 0 .136-.108.082-.19l-3.786-7.272zM30.676 48.63h-.325c-.405 0-.513-.16-.513-.487V36.936c0-.135-.054-.19-.162-.19h-5.41c-.136 0-.217.082-.217.19v.977c0 3.283-.19 7.516-1.92 10.72h-.596c-.162 0-.216.08-.216.216v3.96c0 .137.108.19.19.19h1.298c.297 0 .405-.217.405-.407V50.34H29v2.47c0 .11.08.19.188.19h1.38c.162 0 .324-.135.324-.407V48.85c0-.136-.08-.22-.216-.22zm-2.922 0h-3.922c1.38-2.36 1.92-5.02 2.11-8.275.054-.705.08-1.44.08-1.9h1.732V48.63zM36.194 36.42c-2.92 0-4.22 3.69-4.22 7.707 0 4.098 1.84 6.54 4.545 6.54 1.324 0 2.488-.515 3.082-.896.108-.053.135-.134.108-.243l-.216-.923c-.027-.108-.08-.162-.217-.162-.107 0-.892.298-2.002.298-2.083 0-3.056-1.818-3.056-4.205v-.643s1.053.127 1.676.127h3.95v-1.14c0-4.207-1.488-6.46-3.652-6.46zm-.297 5.89c-.623 0-1.596.107-1.596.107s0-.407.055-.842c.243-2.306.81-3.473 1.758-3.473.866 0 1.406 1.193 1.542 3.283.027.434.027.923.027.923h-1.785z"/></svg>